<svg xmlns="http://www.w3.org/2000/svg" width="585.719" height="385.656" viewBox="0 0 585.719 385.656">
  <metadata><?xpacket begin="﻿" id="W5M0MpCehiHzreSzNTczkc9d"?>
<x:xmpmeta xmlns:x="adobe:ns:meta/" x:xmptk="Adobe XMP Core 5.6-c138 79.159824, 2016/09/14-01:09:01        ">
   <rdf:RDF xmlns:rdf="http://www.w3.org/1999/02/22-rdf-syntax-ns#">
      <rdf:Description rdf:about=""/>
   </rdf:RDF>
</x:xmpmeta>
                                                                                                    
                                                                                                    
                                                                                                    
                                                                                                    
                                                                                                    
                                                                                                    
                                                                                                    
                                                                                                    
                                                                                                    
                                                                                                    
                                                                                                    
                                                                                                    
                                                                                                    
                                                                                                    
                                                                                                    
                                                                                                    
                                                                                                    
                                                                                                    
                                                                                                    
                                                                                                    
                           
<?xpacket end="w"?></metadata>
<defs>
    <style>
      .cls-1 {
        fill: #9f6817;
        fill-rule: evenodd;
      }
    </style>
  </defs>
  <path class="cls-1" d="M594.624,234.018a1.466,1.466,0,0,0-.94-0.7,0.876,0.876,0,0,0-.06-0.3,1.466,1.466,0,0,0-.939-0.7,0.9,0.9,0,0,0-.06-0.3,1.463,1.463,0,0,0-.94-0.7,0.876,0.876,0,0,0-.06-0.3,1.463,1.463,0,0,0-.939-0.7,0.9,0.9,0,0,0-.06-0.3,1.463,1.463,0,0,0-.94-0.7,0.876,0.876,0,0,0-.06-0.3,0.843,0.843,0,0,0-.055-0.078,1.236,1.236,0,0,0,.055-0.921,1.46,1.46,0,0,0-.939-0.7,0.9,0.9,0,0,0-.06-0.3,1.464,1.464,0,0,0-.94-0.7,0.87,0.87,0,0,0-.06-0.3,1.457,1.457,0,0,0-.939-0.7,0.877,0.877,0,0,0-.06-0.3,1.463,1.463,0,0,0-.939-0.7,0.926,0.926,0,0,0-.06-0.3,1.465,1.465,0,0,0-.94-0.7,0.876,0.876,0,0,0-.06-0.3,1.463,1.463,0,0,0-.939-0.7,0.9,0.9,0,0,0-.061-0.3c-0.391-.906-2.46-1.164-3.974-0.56-1.721.7-1.781,2.152-3.229,2.306-0.428.045-.48-0.073-2.77-0.832-1.411-.464-2.12-0.693-2.4-0.737-1.81-.249-2.589.688-3.685,0.9a14.986,14.986,0,0,0-2.388-2.725,8471.852,8471.852,0,0,1-3-3,6.192,6.192,0,0,0-1-1,6.179,6.179,0,0,0-1-1,3.087,3.087,0,0,0-1.393-1.19,4.661,4.661,0,0,0-3.313.46,4.385,4.385,0,0,0-.7-0.638,4.93,4.93,0,0,0-1-1,4.965,4.965,0,0,0-1-1,2824.893,2824.893,0,0,0-2-2,4.771,4.771,0,0,0-1.142-1.094c-0.089-.077-0.194-0.141-0.291-0.212a225.3,225.3,0,0,1-2.936-2.952,6.454,6.454,0,0,0-2.062-3.043,2820.655,2820.655,0,0,1-2-2,4.786,4.786,0,0,0-1-1,2824.893,2824.893,0,0,0-2-2,4.329,4.329,0,0,0-2.081-1.585,3.77,3.77,0,0,0-2.859.1c-0.546.28-.835,0.663-2.312,3.317-1.189,2.122-1.256,2.328-1.662,2.579-1.456.891-2.852-.376-3.783,0.457-0.657.582-.17,1.363-0.65,3.869-0.207,1.076-.525,2.763-1.2,2.852a0.433,0.433,0,0,1-.161-0.03,1.678,1.678,0,0,0-.852-0.795c-0.373-.526-0.733-1.093-1.114-1.018-0.665.141-.525,2.064-1.2,2.211a0.336,0.336,0,0,1-.113-0.016,2.957,2.957,0,0,0-.99-0.986,2.155,2.155,0,0,0-1.394-1.113c-1.278-.081-1.736,2.336-3.14,2.395a1.257,1.257,0,0,1-.567-0.112,2.649,2.649,0,0,0-.418-0.341c-0.11-.135-0.221-0.268-0.333-0.394a1.674,1.674,0,0,0-.246-0.613,3.27,3.27,0,0,0-.957-0.923c-0.015-.025-0.026-0.05-0.043-0.076a3.254,3.254,0,0,0-.956-0.923c-0.015-.025-0.027-0.051-0.043-0.076a3.258,3.258,0,0,0-.957-0.923c-0.015-.025-0.026-0.051-0.043-0.076a3.254,3.254,0,0,0-.956-0.923c-0.015-.025-0.027-0.051-0.043-0.076a3.148,3.148,0,0,0-.689-0.738,2.167,2.167,0,0,0-.311-1.26,3.229,3.229,0,0,0-.956-0.923c-0.015-.026-0.027-0.051-0.043-0.077a3.266,3.266,0,0,0-.956-0.923c-0.015-.025-0.027-0.05-0.044-0.076a3.254,3.254,0,0,0-.956-0.923c-0.015-.025-0.027-0.05-0.043-0.076a3.266,3.266,0,0,0-.956-0.923c-0.016-.025-0.027-0.051-0.044-0.076a3.254,3.254,0,0,0-.956-0.923c-0.015-.025-0.027-0.051-0.043-0.076a3.266,3.266,0,0,0-.956-0.923c-0.015-.025-0.027-0.051-0.044-0.076a2.782,2.782,0,0,0-.319-0.4,33.041,33.041,0,0,0,3.83-4.19,28.606,28.606,0,0,1,4.9-5.254,5.657,5.657,0,0,1,3.14-1.378c0.982-.052,1.315.272,1.758,0,1.152-.723-0.17-3.538,1.012-4.422,0.628-.472,1.212.177,2.859-0.1a6.93,6.93,0,0,0,2.778-1.194c1.795-1.157,1.766-1.931,3.324-3.228,2.275-1.886,3.879-1.518,4.063-2.483,0.125-.673-0.513-1.637-1.517-2.426a5.558,5.558,0,0,0-1-1,5.612,5.612,0,0,0-1-1,5.612,5.612,0,0,0-1-1,5.1,5.1,0,0,0-.49-0.552c0-.008.007-0.012,0.008-0.019,0.125-.672-0.513-1.637-1.518-2.426a24854228987706.94,24854228987706.94,0,0,0-2-2,2822.067,2822.067,0,0,0-2-2,5.624,5.624,0,0,0-1-1,6.18,6.18,0,0,0-5.023-2.354c-2.526.244-2.755,2.639-6.56,3.877-2.179.7-2.674,0.1-3.974,1.009-1.079.752-1.81,2.138-3.229,4.887-1.2,2.314-1.352,2.94-1.943,3.036-0.006,0-.012,0-0.018,0a3.313,3.313,0,0,0-.276-0.212,1412.8,1412.8,0,0,0-2-2,3.314,3.314,0,0,0-1.859-1.386c-1.5-.316-2.881,1.047-7.572,6.176-5.932,6.486-6.25,7.068-8.03,8.2a36.441,36.441,0,0,1-7.668,3.6c-2.483.833-3.436,0.84-5.172,1.931a14.969,14.969,0,0,0-4.432,4.422c-1.463,2.38-.983,3.338-2.217,4.149-1.411.928-2.334-.133-5.54,0.273a11.884,11.884,0,0,0-5.452,2.034,11.63,11.63,0,0,0-2.675,2.852,55.984,55.984,0,0,0-4.876,7.318c-2.585,4.805-4.2,9.566-6.183,10.089l-0.1.022a13.781,13.781,0,0,0,.688,1.44,1.561,1.561,0,0,0-.4-0.406,1.632,1.632,0,0,0-.234-0.084,3.185,3.185,0,0,0-.765-0.915,1.632,1.632,0,0,0-.234-0.084,3.208,3.208,0,0,0-.766-0.916,1.585,1.585,0,0,0-.234-0.083,3.212,3.212,0,0,0-.765-0.916,1.639,1.639,0,0,0-.235-0.083,3.173,3.173,0,0,0-.764-0.915,2.3,2.3,0,0,0-2.128.088,2.172,2.172,0,0,0-1.2,1.474,1.483,1.483,0,0,0,1.037,1.184,2824.893,2824.893,0,0,0,2,2,1.628,1.628,0,0,0,.928.957c0.406,1.592-.378,3.415.742,6.915,0.761,2.373,1.647,3.184,1.2,4.606a4.748,4.748,0,0,1-2.682,2.58c-3.3,1.484-6.955-.491-7.757-0.955a12.366,12.366,0,0,0-1.678-1.8l-0.016-.018c0.209-.166.432-0.34,0.684-0.532,2.135-1.629,2.43-1.621,2.866-2.3,1.094-1.733.842-4.393-.192-4.887a0.813,0.813,0,0,0-.315-0.069,1.553,1.553,0,0,0-.684-0.93,0.818,0.818,0,0,0-.316-0.069,1.545,1.545,0,0,0-.684-0.93,0.813,0.813,0,0,0-.315-0.069,1.553,1.553,0,0,0-.684-0.93,0.821,0.821,0,0,0-.316-0.069,1.545,1.545,0,0,0-.684-0.93,0.647,0.647,0,0,0-.106-0.023,2.3,2.3,0,0,0-.893-1.975,0.819,0.819,0,0,0-.316-0.07,1.543,1.543,0,0,0-.684-0.929,0.814,0.814,0,0,0-.315-0.07,1.556,1.556,0,0,0-.684-0.93,0.818,0.818,0,0,0-.316-0.069,1.54,1.54,0,0,0-.684-0.929,0.814,0.814,0,0,0-.315-0.07,1.545,1.545,0,0,0-.684-0.93,0.818,0.818,0,0,0-.316-0.069,1.545,1.545,0,0,0-.684-0.93,0.813,0.813,0,0,0-.315-0.069,1.545,1.545,0,0,0-.684-0.93,1.428,1.428,0,0,0-1.284.223,1.629,1.629,0,0,0-.239-0.269,1.387,1.387,0,0,0-.461-0.232,1.815,1.815,0,0,0-.538-0.767,1.378,1.378,0,0,0-.461-0.232,1.82,1.82,0,0,0-.539-0.768,1.386,1.386,0,0,0-.461-0.231,1.818,1.818,0,0,0-.538-0.768,4.32,4.32,0,0,0-2.305-.457c-2.194-.147-2.542.325-3.886,0s-1.278-.862-2.394-1.017c-1.234-.162-1.9.42-3.516,1.017-0.754.28-.768,0.214-4.61,0.922-5.024.928-4.529,0.95-5.364,1.009-2.9.214-3.1-.545-6.456-0.641a22.346,22.346,0,0,0-5.117.568c-0.018-.389-0.035-0.786-0.053-1.2-0.687-15.859-1.012-18.962-3.324-20.635l-0.012-.007a4.156,4.156,0,0,0-.988-0.992,0.105,0.105,0,0,1-.011-0.007,4.159,4.159,0,0,0-.989-0.992,0.105,0.105,0,0,0-.011-0.007,4.156,4.156,0,0,0-.988-0.992l-0.011-.007c-0.066-.094-0.133-0.184-0.2-0.268a4.719,4.719,0,0,0-1.784-2.723l-0.012-.007a4.17,4.17,0,0,0-.987-0.992l-0.012-.007a4.156,4.156,0,0,0-.988-0.992,0.041,0.041,0,0,1-.011-0.007,4.174,4.174,0,0,0-.988-0.992l-0.012-.007a4.156,4.156,0,0,0-.988-0.992,0.067,0.067,0,0,0-.011-0.007,4.174,4.174,0,0,0-.988-0.992l-0.012-.007a4.137,4.137,0,0,0-.988-0.992c-1.519-1.094-3.518-1.294-6.386-1.54a25.02,25.02,0,0,0-.534-7.283,2.25,2.25,0,0,1,.1-1.938c0.62-.752,1.861-0.052,2.763-0.641,1.123-.745.857-2.889,0.65-5.255-0.214-2.513-.214-5.041-0.37-7.554-0.45-7.414,1.522-11.025.089-11.791a0.963,0.963,0,0,0-.5-0.1,1.067,1.067,0,0,0-.5-0.9,0.985,0.985,0,0,0-.5-0.1,1.063,1.063,0,0,0-.5-0.9,0.973,0.973,0,0,0-.5-0.1,1.063,1.063,0,0,0-.5-0.9,0.968,0.968,0,0,0-.5-0.1,1.064,1.064,0,0,0-.5-0.9,0.971,0.971,0,0,0-.5-0.1l0-.019c0.08-.994,0-1.613-0.5-1.879a0.964,0.964,0,0,0-.5-0.1,1.064,1.064,0,0,0-.5-0.9,0.972,0.972,0,0,0-.5-0.1,1.064,1.064,0,0,0-.5-0.9,0.974,0.974,0,0,0-.5-0.1,1.061,1.061,0,0,0-.5-0.9,0.961,0.961,0,0,0-.5-0.1,1.064,1.064,0,0,0-.5-0.9,0.974,0.974,0,0,0-.5-0.1,1.064,1.064,0,0,0-.5-0.9,0.96,0.96,0,0,0-.5-0.1,1.063,1.063,0,0,0-.5-0.9c-0.915-.493-2.222.724-3.74,1.73a23.2,23.2,0,0,0-4.1-7.059,11.576,11.576,0,0,0-.9-0.886c-0.034-.038-0.062-0.075-0.1-0.113a11.232,11.232,0,0,0-.9-0.886c-0.034-.038-0.062-0.076-0.1-0.113-0.187-.208-0.4-0.418-0.625-0.63a16.9,16.9,0,0,0-2.374-3.367,11.4,11.4,0,0,0-.9-0.886c-0.034-.038-0.062-0.075-0.1-0.113a11.228,11.228,0,0,0-.9-0.885c-0.034-.038-0.062-0.076-0.1-0.114a11.207,11.207,0,0,0-.9-0.885c-0.034-.038-0.063-0.076-0.1-0.114a11.4,11.4,0,0,0-.9-0.886c-0.034-.038-0.062-0.075-0.1-0.113a11.232,11.232,0,0,0-.9-0.886c-0.033-.038-0.062-0.076-0.1-0.113a11.4,11.4,0,0,0-.9-0.886c-0.034-.038-0.062-0.076-0.1-0.114a26.04,26.04,0,0,0-4.224-3.43A8.756,8.756,0,0,0,320.9,105.6a2824.893,2824.893,0,0,1-2-2,6.986,6.986,0,0,0-.465-0.534c-0.075-.142-0.135-0.269-0.22-0.423a8.96,8.96,0,0,0-2.313-3.04,2353.881,2353.881,0,0,1-2-2,14142.86,14142.86,0,0,1-2-2,5.247,5.247,0,0,0-1-1,4.162,4.162,0,0,0-1.641-1.372,5.452,5.452,0,0,0-3.5-.088c-1.337.309-2.091,0.825-5.637,3.4-2.9,2.108-3.309,2.425-4.247,2.771a12.613,12.613,0,0,1-4.522.545c-4.839.073-8.5-.088-8.5-0.088-6.663-.288-5.393-0.089-7.757-0.281a73.909,73.909,0,0,1-10.9-1.562c-2.445-.545-2.408-0.685-4.24-1.017a37.3,37.3,0,0,0-8.319-.545c-2.726.14-3.2,0.53-9.781,2.019-4.159.944-6.722,1.526-10.069,2.034-4.241.641-3.243,0.177-10.527,1.01-4.736.537-6.354,0.869-8.954,0.272a15.3,15.3,0,0,1-2.638-.869c-0.008.176,0,.351,0,0.528l-0.021-.011c-0.32-.416-0.656-0.842-1.028-1.292-0.089-.106-0.687-0.708-1.8-1.817l-0.34-.341a46.509,46.509,0,0,0-2.859-3.837c-0.088-.106-0.686-0.707-1.8-1.816q-0.4-.4-1-1-0.4-.4-1-1-0.406-.409-1.023-1.023l-0.978-.977q-0.4-.4-0.992-0.992c-0.748-.751-2.025-2.021-3.853-3.838a35.541,35.541,0,0,1-2.739-4.637c-1.6-3.294-1.322-4.082-2.489-5.9a6.933,6.933,0,0,0-1.506-1.7,6.86,6.86,0,0,0-1-1,6.86,6.86,0,0,0-1-1,6.6,6.6,0,0,0-.7-0.743,8.024,8.024,0,0,0-.789-1.552,6.936,6.936,0,0,0-1.506-1.7,6.859,6.859,0,0,0-1-1,6.849,6.849,0,0,0-1-1,6.918,6.918,0,0,0-1-1,6.854,6.854,0,0,0-1-1,6.9,6.9,0,0,0-1-1c-1.009-1.247-2.209-1.828-5.5-4.184-1.913-1.363-3.642-2.749-7.107-5.527-4.225-3.375-4.07-3.523-8.037-6.633-3.007-2.358-3.244-2.388-5.718-4.422-1.463-1.187-3.066-2.211-4.433-3.494-1.263-1.186-2.128-2.189-2.778-1.938-0.413.162-.539,0.759-0.738,2.027a33.876,33.876,0,0,0-.547,4.51c0,0.988-.155,3.117-0.466,7.37-0.177,2.447-.487,4.518-1.108,8.667-0.325,2.181-.583,3.64-1.662,5.159a6.31,6.31,0,0,1-2.866,2.388c-1.256.486-2.335,0.332-4.433,0-0.768-.12-1.427-0.23-2.051-0.367-1.88-3.285-2.01-3.8-2.1-4.313a11.352,11.352,0,0,1,1.108-6.353c0.694-1.533.864-1.113,2.312-3.781,1.205-2.233,1.345-2.992,2.4-3.869,1.227-1.017,1.781-.6,2.675-1.563a5.991,5.991,0,0,0,1.2-4.245,7.6,7.6,0,0,0-.924-3.773,7.273,7.273,0,0,0-1.708-2.02,8.7,8.7,0,0,0-1-1,8.672,8.672,0,0,0-1-1,8.209,8.209,0,0,0-.767-0.8,7.153,7.153,0,0,0-.522-1.178,7.284,7.284,0,0,0-1.709-2.021,8.758,8.758,0,0,0-1-1,8.736,8.736,0,0,0-1-1,8.746,8.746,0,0,0-1-1,8.753,8.753,0,0,0-1-1,8.761,8.761,0,0,0-1-1,9.4,9.4,0,0,0-1.322-1.278,21.729,21.729,0,0,0-5.725-3.139c-1.138-.516-0.909-0.538-6.368-4.422-6.634-4.7-7.543-5.085-8.592-4.79A4.048,4.048,0,0,0,99.7,10.8a0.445,0.445,0,0,0-.132-0.355,1,1,0,0,0-.934,0,0.982,0.982,0,0,0-.066-1,1,1,0,0,0-.934,0,0.982,0.982,0,0,0-.066-1,1,1,0,0,0-.934,0,0.982,0.982,0,0,0-.066-1,1,1,0,0,0-.934,0,0.983,0.983,0,0,0-.066-1,1,1,0,0,0-.934,0,0.982,0.982,0,0,0-.066-1C94.009,5,92.524,6,91.8,6.465,89.244,8.086,88.778,7.7,78.406,10.887c-8.082,2.484-7.018,2.484-16.9,5.616-8.858,2.808-9.316,2.683-16.9,5.159-7.062,2.307-8.562,3.029-14.6,5.07C25.142,28.375,17.99,30.645,9,32.959q0.122,83.285.244,166.556l1,0.141v0.858l1,0.141v0.858l1,0.141v0.858l1,0.141q0,0.429,0,.858l1,0.141v0.858l1,0.141,0,1.857,1,0.142v0.857l1,0.142v0.858l1,0.141v0.858l1,0.141v0.858l1,0.141V211.5l33.429,4.731a26.1,26.1,0,0,0,.924-9.028,37.263,37.263,0,0,0-1.478-7.369c-1.477-5.225-2.549-5.918-2.216-8.291,0.273-1.953,1.293-3.265,3.324-5.9,1.056-1.364,1.566-1.791,6.464-6.448,3.871-3.685,3.982-3.833,4.617-4.054,2.763-.965,4.093.656,9.419,0.553,2.5-.052,3.775-0.074,5.171-0.921,2.852-1.725,3.694-5.307,3.879-6.264,0.458-2.359-.3-2.816.369-5.344,0.414-1.562.909-3.449,2.586-4.237a4.178,4.178,0,0,1,2.64-.255,1.887,1.887,0,0,0,.456.39,2.179,2.179,0,0,0,.211.108,1.973,1.973,0,0,0,.789.891,2.191,2.191,0,0,0,.211.108,1.974,1.974,0,0,0,.789.891,2.2,2.2,0,0,0,.211.108,1.973,1.973,0,0,0,.789.891,2.534,2.534,0,0,0,2.035.18c1.108,2.114,1.7,2.613,2.011,2.719a2.444,2.444,0,0,0,1,1,3532,3532,0,0,1,2,2,2.451,2.451,0,0,0,1,1c0.689,0.993,1.029,1.037,1.191,1.027,0.664-.037,1.27-1.01,1.477-1.843,0.528-2.113-1.066-4.979-3.573-7.262-0.314-.342-0.645-0.676-1-1q-0.416-.453-0.879-0.884a12.9,12.9,0,0,0-3.119-4.111c-0.315-.343-0.647-0.679-1-1-0.313-.341-0.644-0.675-1-1-0.086-.094-0.173-0.188-0.262-0.28a4.987,4.987,0,0,1,1.225-.68c0.739-.273,1.315-0.251,6.28.552,2.607,0.42,3.206.538,4.063,0.185a5.862,5.862,0,0,0,2.77-2.948c0.665-1.578.185-2.417,0.739-2.764,0.583-.363,1.68.227,2.765,1.038a21.822,21.822,0,0,0,2.828,3.262c0.285,0.307.615,0.638,1,1,0.285,0.306.614,0.636,1,1,0.284,0.306.613,0.636,1,1,0.285,0.307.614,0.638,1,1,0.359,0.387.779,0.806,1.305,1.285,2.372,2.152,3.524,2.469,4.064,2.579a6.153,6.153,0,0,0,2.8-.155,15.865,15.865,0,0,0,2.115,2.389,11.093,11.093,0,0,0,1,1,10.951,10.951,0,0,0,1,1,11.093,11.093,0,0,0,1,1,10.951,10.951,0,0,0,1,1,9.858,9.858,0,0,0,1.616,1.508c0.517,0.376,2.268,1.563,7.757,1.843a31.03,31.03,0,0,0,4.651-.09,2.788,2.788,0,0,1-.5,1,11.8,11.8,0,0,1-2.585,1.474,16.162,16.162,0,0,0,2.4,3.132c0.089,0.095.3,0.306,0.633,0.6,0.123,0.134.233,0.265,0.366,0.4,0.09,0.1.3,0.306,0.633,0.6,0.123,0.134.233,0.265,0.367,0.4,0.089,0.095.3,0.305,0.633,0.6,0.123,0.134.233,0.266,0.366,0.4,0.09,0.095.3,0.305,0.633,0.6,0.052,0.056.1,0.112,0.155,0.169l-0.191.1a16.174,16.174,0,0,0,2.4,3.132c0.089,0.095.3,0.306,0.634,0.6,0.123,0.134.232,0.265,0.365,0.4,0.09,0.095.3,0.306,0.634,0.6,0.1,0.108.189,0.213,0.294,0.322a1.974,1.974,0,0,1-.167.114c-1.463.8-3.982-.869-4.618-1.289-1.2-.8-1.64-1.467-2.216-1.29a2.136,2.136,0,0,0-.923,2.211,2.759,2.759,0,0,0,1.318,1.873,4.725,4.725,0,0,0,1,1,2.829,2.829,0,0,0,.428.507c0.07,0.1.142,0.19,0.21,0.305,0.768,1.3,1.433,3.508.554,4.974-0.842,1.408-2.5,1.106-2.771,2.211-0.221.877,0.658,1.754,2.4,3.5,0.224,0.224.432,0.432,0.633,0.63l0.367,0.369c0.222,0.222.428,0.428,0.627,0.624,0.122,0.124.24,0.242,0.372,0.375,0.225,0.225.433,0.433,0.634,0.631l0.366,0.368c0.207,0.208.4,0.4,0.588,0.587-0.14.848,0.727,1.723,2.41,3.41,0.227,0.227.437,0.436,0.639,0.636l0.361,0.363c0.224,0.224.432,0.432,0.633,0.631l0.366,0.368,0.63,0.628,0.37,0.371c0.224,0.224.432,0.432,0.632,0.63l0.367,0.369c0.225,0.225.434,0.434,0.635,0.632l0.365,0.367c1.6,1.607,2.512,2.513,4.063,3.132a7.126,7.126,0,0,0,2.4.477,19.276,19.276,0,0,1,1.8,1.7,136.036,136.036,0,0,0,2.08,2.057,5.577,5.577,0,0,0,3.14.553c1.61-.052,2.15-0.524,3.694-0.922,2.748-.7,3.073.273,6.833-0.184,2.5-.3,2.734-0.781,4.248-0.553a9.236,9.236,0,0,1,3.879,1.659c0.195,0.142.365,0.28,0.519,0.412a5.764,5.764,0,0,0,.6.572,5.08,5.08,0,0,0,2.022,1.595,5.415,5.415,0,0,0,2.586.368,4.523,4.523,0,0,0,2.4-.921c1.537-1.3.739-3.066,2.032-4.422a4.8,4.8,0,0,1,3.509-1.1c0.719,0,1.919.109,4.063,1.5,0.753,2.547-.107,3.107.915,7.606a64.559,64.559,0,0,0,2.312,6.905c0.805,2.2,1.4,3.847,1.913,5.063,0.158-.114.308-0.236,0.463-0.353q0.144,0.374.278,0.71c-0.15.111-.293,0.228-0.445,0.336a7.944,7.944,0,0,0,1.019,1.8,9.136,9.136,0,0,0,1.169,1.194,8.981,8.981,0,0,0,1,1,2820.655,2820.655,0,0,1,2,2,8.9,8.9,0,0,0,.914.924c-0.036.026-.069,0.054-0.1,0.08a7.967,7.967,0,0,0,1.019,1.8,9.028,9.028,0,0,0,1.171,1.195c0.095,0.111.192,0.224,0.286,0.324,0.226,1.065.426,2.33,0.673,3.927,0.753,4.805.192,5.646,1.108,7.915a11.451,11.451,0,0,0,3.138,4.214c0.3,0.315.627,0.646,1,1,0.3,0.315.628,0.646,1,1,0.278,0.3.582,0.6,0.926,0.93a11.627,11.627,0,0,0,3.071,4.064c0.3,0.315.627,0.645,1,1,0.3,0.316.628,0.647,1,1,0.3,0.315.627,0.646,1,1,0.3,0.315.626,0.645,1,1,0.7,0.744,1.584,1.563,2.759,2.593a135.819,135.819,0,0,0,12.19,9.493c0.923,0.633,2.8,1.915,10.615,7.177,5.149,3.471,7.894,5.312,9.752,6.75,0.624,0.712,1.335,1.486,2.294,2.415,0.3,0.312.637,0.648,1,1,0.3,0.311.635,0.646,1,1,0.3,0.312.637,0.648,1,1,0.3,0.311.637,0.647,1,1,0.436,0.453.926,0.942,1.507,1.486a75.209,75.209,0,0,0,6.648,5.248c3.842,2.867,4.662,3.257,5.814,3.316s1.825-.243,3.967-0.177c0.008,0,1.02.029,2.2,0.184q0.321-.32.665-0.619l0.05-.043a5.838,5.838,0,0,1,.785.3c-0.115.1-.243,0.211-0.34,0.3l-0.237.214a1.754,1.754,0,0,1,.2.037,5.943,5.943,0,0,1,2.057.826q0.371,0.38.778,0.769,0.469,0.492,1,1,0.469,0.49,1,1,0.47,0.492,1,1,0.469,0.49,1,1a27.515,27.515,0,0,0,3.42,3.059,73.219,73.219,0,0,0,7.107,4.149c1.89,1.038,3.176,1.695,4.191,2.273a10.992,10.992,0,0,0,1.8,2.584c0.385,0.427.78,0.816,1.18,1.183,0.329,0.352.661,0.689,1,1,0.327,0.353.66,0.689,1,1,0.328,0.353.661,0.69,1,1,0.327,0.352.659,0.688,1,1,2.842,3.055,6.142,4.435,9.239,5.713,3.117,1.3,4.676,1.945,6.833,1.938,2.335-.007,3.45-0.7,6.28-0.368a15.858,15.858,0,0,1,4.152,1.1c2.164,0.892,2.489,1.592,6.56,4.422,0.793,0.553,1.482,1.009,2.3,1.529a15.5,15.5,0,0,0-.917,1.685,18.766,18.766,0,0,0-1.574,5.616c-0.325,2.461-.5,3.788.1,5.343,0.828,2.137,2.224,2.388,2.4,4.326,0.148,1.629-.739,2.439-0.185,3.139a1.336,1.336,0,0,0,.817.432,0.831,0.831,0,0,0,.183.567,1.331,1.331,0,0,0,.816.432,0.84,0.84,0,0,0,.183.568,1.34,1.34,0,0,0,.817.431,0.835,0.835,0,0,0,.183.568,1.33,1.33,0,0,0,.816.431,0.84,0.84,0,0,0,.183.568,1.335,1.335,0,0,0,.817.431,0.835,0.835,0,0,0,.183.568,1.336,1.336,0,0,0,.816.432,0.878,0.878,0,0,0,.1.421,1.2,1.2,0,0,0,.079,1.145,1.336,1.336,0,0,0,.817.432,0.832,0.832,0,0,0,.183.567,1.331,1.331,0,0,0,.816.432,0.837,0.837,0,0,0,.183.567,1.336,1.336,0,0,0,.817.432,0.832,0.832,0,0,0,.183.567,1.331,1.331,0,0,0,.816.432,0.84,0.84,0,0,0,.183.568,1.335,1.335,0,0,0,.817.431,0.835,0.835,0,0,0,.183.568c0.657,0.825,2.489.42,3.6,0.177a18.136,18.136,0,0,0,3.789-1.474c1.81-.746,4.061-1.664,6.14-1.234a5.6,5.6,0,0,0,1.422,2.325c0.089,0.082.244,0.222,0.45,0.384a4.564,4.564,0,0,0,.549.616c0.09,0.081.244,0.221,0.45,0.382a4.462,4.462,0,0,0,.55.617c0.089,0.081.244,0.221,0.45,0.383a4.5,4.5,0,0,0,.549.616c0.09,0.081.244,0.221,0.45,0.383a4.517,4.517,0,0,0,.55.616c0.089,0.081.244,0.222,0.45,0.383a4.446,4.446,0,0,0,.549.616,5.125,5.125,0,0,0,3.325,1.474,5.762,5.762,0,0,0,3.6-1.57c1.589-1.282,1.618-2.292,2.586-2.395,0.79-.088,1,0.553,2.778,1.563a12.392,12.392,0,0,0,3.5,1.385c1.425,0.3,2.7.567,3.789-.088,1.6-.973,1.722-3.309,1.751-3.877,0.155-2.749-1.485-3.56-1.477-5.9,0.007-.685.155-1.673,2.585-5.062,4.455-6.2,6.147-5.94,6.841-8.844,0.673-2.845-.5-4.931,1.109-6.361a3.133,3.133,0,0,1,2.393-.825c1.212,0.236,1.514,1.5,2.216,1.386,0.6-.1.673-1.039,1.574-3.044,0.761-1.695.945-1.548,1.477-2.852a9.211,9.211,0,0,0,.924-4.053,7.654,7.654,0,0,0-1.847-4.245,12.046,12.046,0,0,0-1.64-1.774,12.388,12.388,0,0,0-1-1,12.519,12.519,0,0,0-.991-0.991,10.586,10.586,0,0,0-1.368-2.231,12.1,12.1,0,0,0-1.639-1.774,211.785,211.785,0,0,1-1.921-1.931,6.745,6.745,0,0,0,.52-2.365c0.118-2.984-1.677-4.436-.643-6.08,0.606-.958,1.6-1.076,1.663-2.026a5.624,5.624,0,0,0-.924-2.211c-0.65-1.224-.849-1.43-0.739-1.658,0.311-.641,2.172.316,3.229-0.553,1.13-.929.546-3.257,0.465-3.589a5.881,5.881,0,0,0-2.034-3.094,2824.893,2824.893,0,0,1-2-2,5.125,5.125,0,0,0-.989-0.992,5.815,5.815,0,0,0-2.01-3,5.159,5.159,0,0,0-1-1,8473.266,8473.266,0,0,1-4-4,4.97,4.97,0,0,0-1.647-1.413c-0.945-.494-2.09-0.457-4.336-0.369-1.589.066-2.858,0.215-4.878,0.364a2.321,2.321,0,0,0-.351-0.212c-0.041-.073-0.068-0.148-0.116-0.219a2.232,2.232,0,0,0-.884-0.78c-0.041-.073-0.067-0.148-0.116-0.219a2.226,2.226,0,0,0-.883-0.781c-0.042-.072-0.068-0.147-0.116-0.219-0.012-.017-0.025-0.031-0.037-0.048,1.647-1.329,2.371-1.354,2.588-2.2,0.148-.6-0.148-0.833-1.478-4.054-0.628-1.5-.687-1.761-0.65-2.122a4.011,4.011,0,0,1,2.113-2.653,5.9,5.9,0,0,1,.414-1.6,4.316,4.316,0,0,1,.846-0.114,6.33,6.33,0,0,0-.447,1.3c1.507-.611,2.12.008,3.723-0.715,1.743-.781,1.566-1.746,2.955-2.3,0.613-.25,1.788-0.523,6,1.283,3.657,1.569,3.442,2.063,5.732,2.859,0.562,0.2.769,0.236,7.292,1.017,3.7,0.435,5.578.641,6.922-.191,0.237-.14.894-0.708,2.217-1.843,1.448-1.238,1.8-1.614,1.942-2.211a4.2,4.2,0,0,0-.273-2.115c-0.362-1.319-.761-1.658-0.561-2.211,0.221-.6.768-0.435,1.3-1.105,0.753-.959.052-1.806,0.739-2.852a5.152,5.152,0,0,1,1.935-1.3c0.709-.368.82-0.361,2.586-1.105,1.788-.752,1.95-0.87,2.4-0.825,1.027,0.1,1.4.869,1.943,0.648a1.441,1.441,0,0,0,.546-1.665,1.557,1.557,0,0,0-.966-0.858,1.111,1.111,0,0,0-.033-0.141,1.56,1.56,0,0,0-.966-0.858,1.114,1.114,0,0,0-.034-0.141,1.011,1.011,0,0,0-.3-0.446,3.072,3.072,0,0,1,.08-1.514,3.144,3.144,0,0,1,1.478-1.57c1.573-.9,2.526-0.155,3.516-0.913,1-.782,1.33-2.573.739-3.14a0.777,0.777,0,0,0-.714-0.113,1.244,1.244,0,0,0-.286-0.886,0.773,0.773,0,0,0-.714-0.113,1.244,1.244,0,0,0-.285-0.886,0.771,0.771,0,0,0-.714-0.113,1.535,1.535,0,0,0-.134-0.662c0.69-.392.714-0.727,1.369-0.816,1.411-.192,1.877,1.29,3.6,1.378a4.115,4.115,0,0,0,1.891-.567c-0.118-.244-0.229-0.487-0.325-0.737a10.249,10.249,0,0,1-.4-1.244c0.037,0.01.077,0.015,0.113,0.026a8.432,8.432,0,0,0,.4.882,2.813,2.813,0,0,1,.6.117,8.865,8.865,0,0,0,.4.882c1.655,0.14,2.231,1.592,3.228,1.29a2.393,2.393,0,0,0,1.2-1.658c0.481-1.511-.369-2.086,0-3.781,0.266-1.268.8-1.209,0.828-2.211,0.022-.921-0.429-1.091-1.293-3.125-0.7-1.665-.5-1.776-1.012-2.491-0.717-.987-1.33-1.068-1.478-1.842a1.916,1.916,0,0,1,.739-1.931c0.813-.494,1.611.376,2.49-0.1a2.608,2.608,0,0,0,1.012-1.938c0.244-1.319-.31-1.7-0.37-3.317a4.22,4.22,0,0,1,.739-3.124c0.894-.929,2.342-0.819,3.421-0.737,0.21,0.014.527,0.041,0.9,0.1a3.675,3.675,0,0,0,.482.522,5.315,5.315,0,0,0,.427.337,3.484,3.484,0,0,0,.572.662,5.422,5.422,0,0,0,.428.337,3.356,3.356,0,0,0,.572.662,5.078,5.078,0,0,0,.427.337,3.424,3.424,0,0,0,.572.662,5.27,5.27,0,0,0,.427.337,3.4,3.4,0,0,0,.573.662,4.861,4.861,0,0,0,.427.337,3.422,3.422,0,0,0,.572.663c0.126,0.117,1.8,1.576,3.325,1.1,1.514-.464,1.234-2.336,3.043-3.316,1.2-.649,1.566.029,3.413-0.457,1.426-.384,1.781-0.936,4.625-2.86,0.273-.184,1.9-1.282,3.782-2.4,3.776-2.226,4.263-1.953,4.987-3.044,0.931-1.4.392-2.277,1.751-4.326a11.2,11.2,0,0,1,.7-0.961,4.848,4.848,0,0,0,.9.876c0.012,0.015.017,0.028,0.029,0.043a4.876,4.876,0,0,0,.971.957c0.011,0.015.017,0.027,0.028,0.042a4.849,4.849,0,0,0,.674.709c-0.575.852-2.277,2.013-5.519,4.953-2.689,2.44-2.733,2.742-3.878,3.317-2.719,1.363-4.632.744-5.268,2.027-0.539,1.112.274,2.829,1.3,3.78a3.627,3.627,0,0,0,.41.324,4.733,4.733,0,0,0,.59.675,3.711,3.711,0,0,0,.409.324,4.8,4.8,0,0,0,.591.675,3.428,3.428,0,0,0,.409.324,4.806,4.806,0,0,0,.59.676,3.7,3.7,0,0,0,.409.323,4.871,4.871,0,0,0,.59.676,3.719,3.719,0,0,0,.41.324c0.059,0.08.117,0.161,0.18,0.236a4.8,4.8,0,0,0,1.286,2.308c0.066,0.1.134,0.208,0.214,0.313a5.275,5.275,0,0,0,.95.927c0.018,0.024.031,0.048,0.049,0.072a5.312,5.312,0,0,0,.95.927c0.018,0.024.031,0.048,0.05,0.072a5.24,5.24,0,0,0,.95.927c0.018,0.025.031,0.049,0.049,0.073a5.368,5.368,0,0,0,.951.927c0.017,0.024.03,0.047,0.049,0.072a5.31,5.31,0,0,0,.95.927c0.018,0.024.031,0.048,0.049,0.072,0.042,0.053.13,0.163,0.259,0.3a3.749,3.749,0,0,0,.741,1.7,5.275,5.275,0,0,0,.95.927c0.018,0.024.031,0.048,0.049,0.072a5.275,5.275,0,0,0,.95.927c0.018,0.024.031,0.048,0.05,0.073a5.318,5.318,0,0,0,.95.926c0.018,0.024.031,0.048,0.049,0.072a5.223,5.223,0,0,0,.951.927c0.017,0.025.03,0.048,0.049,0.073a5.283,5.283,0,0,0,.95.926c0.018,0.025.031,0.048,0.049,0.073a4.851,4.851,0,0,0,2.409,1.665,3.866,3.866,0,0,0,2.528-.279,1.844,1.844,0,0,0,.322.45,1.49,1.49,0,0,0,.588.291,1.631,1.631,0,0,0,.411.708,1.49,1.49,0,0,0,.588.291,1.642,1.642,0,0,0,.411.708,1.488,1.488,0,0,0,.589.291,1.631,1.631,0,0,0,.411.708,1.492,1.492,0,0,0,.588.292,1.643,1.643,0,0,0,.411.707,1.506,1.506,0,0,0,.588.292,1.64,1.64,0,0,0,.412.707,1.492,1.492,0,0,0,.588.292,1.223,1.223,0,0,0,.1.277,0.831,0.831,0,0,0-.147.5,1.466,1.466,0,0,0,.458.929,1.493,1.493,0,0,0,.587.291,1.647,1.647,0,0,0,.412.708,1.49,1.49,0,0,0,.588.291,1.642,1.642,0,0,0,.411.708,1.5,1.5,0,0,0,.588.291,1.639,1.639,0,0,0,.412.708,1.492,1.492,0,0,0,.588.292,1.643,1.643,0,0,0,.411.707,1.5,1.5,0,0,0,.588.292,1.64,1.64,0,0,0,.412.707,2.624,2.624,0,0,0,2.157.3c0.008,0,.022-0.008.03-0.008a3.056,3.056,0,0,0,1.876-1.215,1.3,1.3,0,0,0,.192-1.106,2.074,2.074,0,0,0-.938-0.626,0.742,0.742,0,0,0-.061-0.373,2.082,2.082,0,0,0-.938-0.626,0.755,0.755,0,0,0-.062-0.373,0.461,0.461,0,0,0-.1-0.139c0.022-.1.046-0.189,0.064-0.251,0.325-1,1.212-1.223,1.108-1.665a1.235,1.235,0,0,0-.916-0.545A1.258,1.258,0,0,0,527.4,269a0.468,0.468,0,0,0,.19-0.424,1.239,1.239,0,0,0-.916-0.546,1.331,1.331,0,0,0-.273-0.03,0.465,0.465,0,0,0,.189-0.423,1.234,1.234,0,0,0-.916-0.546,1.324,1.324,0,0,0-.273-0.03,0.466,0.466,0,0,0,.19-0.423,0.618,0.618,0,0,0-.369-0.369c-0.015-.074-0.026-0.142-0.046-0.223-0.1-.442-0.1-0.251-0.369-1.2a3.423,3.423,0,0,0-.65-1.651,1.563,1.563,0,0,0-.646-0.382,1.325,1.325,0,0,0-.354-0.617,1.572,1.572,0,0,0-.646-0.383,1.32,1.32,0,0,0-.353-0.616,1.572,1.572,0,0,0-.646-0.383,1.321,1.321,0,0,0-.354-0.616,1.788,1.788,0,0,0-.325-0.248c0.736-.414,1.432-0.839,2.216-1.369,2.6-1.746,2.807-2.314,4.255-2.668a8.9,8.9,0,0,1,5.075.457c2.312,0.848,2.32,1.828,4.529,2.307,0.207,0.045.4,0.077,0.574,0.1a3.006,3.006,0,0,0-.857.534,2.031,2.031,0,0,0-.93,1.194,1.612,1.612,0,0,0,.369,1.194,1.325,1.325,0,0,0,.735.543,2.019,2.019,0,0,0,.264.456,1.328,1.328,0,0,0,.735.543,1.972,1.972,0,0,0,.265.456,1.325,1.325,0,0,0,.735.543,1.913,1.913,0,0,0,.265.456,1.322,1.322,0,0,0,.734.543,1.949,1.949,0,0,0,.265.456,1.321,1.321,0,0,0,.735.543,1.858,1.858,0,0,0,.265.456,1.365,1.365,0,0,0,.715.541,1.1,1.1,0,0,0-.085.264,1.612,1.612,0,0,0,.369,1.194,1.329,1.329,0,0,0,.735.543,1.943,1.943,0,0,0,.264.456,1.328,1.328,0,0,0,.735.543,1.972,1.972,0,0,0,.265.456,1.325,1.325,0,0,0,.735.543,1.943,1.943,0,0,0,.264.456,1.325,1.325,0,0,0,.735.543,1.972,1.972,0,0,0,.265.456,1.321,1.321,0,0,0,.735.543,1.943,1.943,0,0,0,.264.456,1.154,1.154,0,0,0,.835.56c0.4-.059.355-0.619,0.924-0.928a4.1,4.1,0,0,1,1.108-.177,1.726,1.726,0,0,0,1.2-.369c0.073-.235-0.348-0.368-0.739-1.017a3.621,3.621,0,0,0-.547-1.105,0.881,0.881,0,0,0-.552-0.1,1.925,1.925,0,0,0-.447-0.9,0.884,0.884,0,0,0-.552-0.1,1.91,1.91,0,0,0-.448-0.9,0.881,0.881,0,0,0-.552-0.1,1.915,1.915,0,0,0-.447-0.9,0.884,0.884,0,0,0-.552-0.1c-0.143-.3-0.19-0.512-0.258-0.667a0.205,0.205,0,0,0,.1-0.111c0.074-.236-0.347-0.369-0.739-1.017a3.6,3.6,0,0,0-.546-1.106,0.891,0.891,0,0,0-.552-0.1,1.915,1.915,0,0,0-.448-0.9,0.888,0.888,0,0,0-.552-0.1,1.925,1.925,0,0,0-.447-0.9,0.891,0.891,0,0,0-.552-0.1,5.6,5.6,0,0,1-.239-0.617c0.459-.212.82-1.129,1.434-1.831a1.8,1.8,0,0,0,.453.248c0.008,0.032,0,.064.015,0.1a1.67,1.67,0,0,0,.984.9c0.008,0.033,0,.064.016,0.1a1.669,1.669,0,0,0,.984.9c0.008,0.033,0,.064.015,0.1a1.694,1.694,0,0,0,1.574,1.01c0.672-.052.975-0.671,2.955-3.044a2.621,2.621,0,0,1,1.2-1.106c0.968-.243,1.507.8,2.859,0.833,1.042,0.029,2.12-.553,2.12-1.009a1.465,1.465,0,0,0-1.116-.734,0.466,0.466,0,0,0,.117-0.266,1.465,1.465,0,0,0-1.117-.733,0.466,0.466,0,0,0,.117-0.266,0.648,0.648,0,0,0-.471-0.468,6.629,6.629,0,0,1,1.185-1.41c1.123-1.143,1.507-.98,2.393-1.931,1.094-1.164.761-1.673,1.759-2.491a4.869,4.869,0,0,1,2.674-1.01c0.044,0,.081-0.007.126-0.007-0.089-.213-0.192-0.42-0.3-0.619a14.13,14.13,0,0,0-.821-1.417c0.074,0,.149.007,0.223,0.014,0.047,0.025.089,0.058,0.137,0.08a1.687,1.687,0,0,0,.393.589c0.044,0.1.1,0.2,0.14,0.31,0.109,0,.22.01,0.33,0.02,0.046,0.025.088,0.058,0.137,0.08a1.661,1.661,0,0,0,.392.589c0.045,0.1.1,0.2,0.14,0.31,0.11,0,.22.01,0.33,0.02,0.047,0.026.089,0.058,0.137,0.08a1.665,1.665,0,0,0,.519.717,2.24,2.24,0,0,0,.48.282,1.674,1.674,0,0,0,.519.717,2.19,2.19,0,0,0,.481.282,1.665,1.665,0,0,0,.519.717,2.705,2.705,0,0,0,2.585.369,1.953,1.953,0,0,0,1.109-.922,1.755,1.755,0,0,0-.965-2.376c-0.015-.045-0.029-0.081-0.035-0.1a1.436,1.436,0,0,0-.517-0.626c-0.122-.561.353-0.895,0.312-2.059-0.029-.892-0.325-1.017-0.184-1.474a2.4,2.4,0,0,1,1.8-1.355c0.064,0.067.113,0.134,0.187,0.2a4.4,4.4,0,0,0,.416.308,3.331,3.331,0,0,0,.583.691,4.485,4.485,0,0,0,.417.308,3.331,3.331,0,0,0,.583.691,4.4,4.4,0,0,0,.416.308,3.331,3.331,0,0,0,.583.691,4.257,4.257,0,0,0,3.229,1.009,4.559,4.559,0,0,0,2.5-1.562,11.289,11.289,0,0,0,1.758-2.491,20.31,20.31,0,0,1,2.586-3.589,10.082,10.082,0,0,1,4.61-2.763c2.2-.56,2.918.191,4.432-0.649C593.819,236.414,595,234.888,594.624,234.018Zm-34.69,12.318a5.767,5.767,0,0,0-.533-0.6c0.093,0.007.184,0.018,0.276,0.033l0.019,0.035c0.091,0.172.163,0.355,0.242,0.534ZM540.293,260.5a5.681,5.681,0,0,1-.239-0.617,0.555,0.555,0,0,0,.056-0.024c0.09,0.243.167,0.459,0.25,0.639C540.337,260.5,540.316,260.5,540.293,260.5ZM245.44,211.172c0.674,0.791,1.174,1.432,1.6,2-0.043-.028-0.082-0.049-0.125-0.078-0.081-.055-0.152-0.114-0.231-0.169-0.456-.6-0.974-1.284-1.7-2.141C245.139,210.906,245.288,211.042,245.44,211.172Zm195.345,15.2c0.071,0.143.15,0.282,0.225,0.422a1.562,1.562,0,0,0-.4-0.406c-0.042-.023-0.091-0.028-0.135-0.048-0.117-.207-0.242-0.409-0.349-0.623Q440.449,226.053,440.785,226.37ZM93.929,50.233a15.846,15.846,0,0,1,1.662-6.913c1.226-2.7,1.758-2.277,2.866-4.694,0.049-.107.089-0.205,0.132-0.308a11.625,11.625,0,0,1-.045,3.7c-0.155,1.563-.236,2.351-0.739,2.771-0.909.752-2.031-.059-2.778,0.641-0.657.619-.177,1.643-0.177,3.5a11.474,11.474,0,0,1-.7,3.727A16.313,16.313,0,0,1,93.929,50.233ZM558.637,244.979l0.151,0.027c0.054,0.109.1,0.222,0.151,0.334l0,0C558.84,245.215,558.742,245.1,558.637,244.979Zm-17.583,15.9a0.449,0.449,0,0,0,.056-0.024c0.089,0.244.166,0.46,0.249,0.639-0.022,0-.044,0-0.067,0A5.359,5.359,0,0,1,541.054,260.881Zm19.493-14.136a2,2,0,0,0,.107.25c-0.08-.089-0.166-0.174-0.253-0.259C560.45,246.74,560.5,246.739,560.547,246.745Zm-21.492,12.138c0.018-.009.038-0.013,0.056-0.024,0.089,0.243.166,0.459,0.249,0.638l-0.067,0A5.554,5.554,0,0,1,539.055,258.883Z" transform="translate(-9 -5.344)"/>
</svg>
