<svg xmlns="http://www.w3.org/2000/svg" width="45" height="15.969" viewBox="0 0 45 15.969">
  <metadata><?xpacket begin="﻿" id="W5M0MpCehiHzreSzNTczkc9d"?>
<x:xmpmeta xmlns:x="adobe:ns:meta/" x:xmptk="Adobe XMP Core 5.6-c138 79.159824, 2016/09/14-01:09:01        ">
   <rdf:RDF xmlns:rdf="http://www.w3.org/1999/02/22-rdf-syntax-ns#">
      <rdf:Description rdf:about=""/>
   </rdf:RDF>
</x:xmpmeta>
                                                                                                    
                                                                                                    
                                                                                                    
                                                                                                    
                                                                                                    
                                                                                                    
                                                                                                    
                                                                                                    
                                                                                                    
                                                                                                    
                                                                                                    
                                                                                                    
                                                                                                    
                                                                                                    
                                                                                                    
                                                                                                    
                                                                                                    
                                                                                                    
                                                                                                    
                                                                                                    
                           
<?xpacket end="w"?></metadata>
<defs>
    <style>
      .cls-1 {
        fill: #fce501;
        fill-rule: evenodd;
      }
    </style>
  </defs>
  <path class="cls-1" d="M513,263.589c0-3.641-3.444-6.216-7.92-6.216-5.624,0-12.568,6.127-14.29,8.792-0.344.532-.172,1.243,0.688,0.532,3.444-2.841,6.17-6.572,11.192-6.572,1.98,0,3.96,1.066,3.96,3.109,0,4.174-4.534,4.292-6.112,1.687-0.431-.71-1.292-0.444-0.862.533a7.343,7.343,0,0,0,6.543,4.085C508.782,269.539,513,267.319,513,263.589Zm-44.957-1.958c0.473,3.608,4.221,5.684,8.657,5.063,5.573-.779,10.71-7.191,12.07-10.069,0.271-.576.008-1.256-0.752-0.433-3.043,3.293-3.795,6.39-8.771,7.085-1.963.275-3.827-.489-3.813-2.532,0.023-3.162,2.706-4.286,3.944-3.051,0.584,0.582,1.337.261,0.784-.647-1.091-1.79-3.126-2.879-6.327-2.432C471.276,254.973,467.557,257.935,468.043,261.631ZM486,263.239c8.153-8.411,13.279-10.332,18.594-8.719,1.183,0.359,1.021,1.17-.2,1.018-1.948-.242-7.776.607-12.569,7.261-5.68,7.885-15.937,8.052-19.625,6.3-1.119-.533-0.844-1.311.345-0.977C474.434,268.651,480.316,269.1,486,263.239Z" transform="translate(-468 -254)"/>
</svg>
