<svg xmlns="http://www.w3.org/2000/svg" width="14" height="21" viewBox="0 0 14 21">
  <metadata><?xpacket begin="﻿" id="W5M0MpCehiHzreSzNTczkc9d"?>
<x:xmpmeta xmlns:x="adobe:ns:meta/" x:xmptk="Adobe XMP Core 5.6-c138 79.159824, 2016/09/14-01:09:01        ">
   <rdf:RDF xmlns:rdf="http://www.w3.org/1999/02/22-rdf-syntax-ns#">
      <rdf:Description rdf:about=""/>
   </rdf:RDF>
</x:xmpmeta>
                                                                                                    
                                                                                                    
                                                                                                    
                                                                                                    
                                                                                                    
                                                                                                    
                                                                                                    
                                                                                                    
                                                                                                    
                                                                                                    
                                                                                                    
                                                                                                    
                                                                                                    
                                                                                                    
                                                                                                    
                                                                                                    
                                                                                                    
                                                                                                    
                                                                                                    
                                                                                                    
                           
<?xpacket end="w"?></metadata>
<defs>
    <style>
      .cls-1 {
        fill: #fce712;
        fill-rule: evenodd;
      }
    </style>
  </defs>
  <path id="Forma_1" data-name="Forma 1" class="cls-1" d="M250.669,3310.23a6.5,6.5,0,0,0-.328-0.84,6.823,6.823,0,0,0-6.436-4.39,6.925,6.925,0,0,0-6.905,6.51v0.9c0,0.04.012,0.37,0.03,0.54,0.253,2.09,1.85,4.31,3.042,6.4,1.282,2.24,2.613,4.45,3.932,6.65,0.813-1.44,1.623-2.89,2.418-4.29,0.216-.41.468-0.82,0.684-1.22,0.145-.26.421-0.52,0.547-0.76,1.283-2.43,3.347-4.87,3.347-7.28v-0.99A7.428,7.428,0,0,0,250.669,3310.23Zm-6.707,4.5a2.324,2.324,0,0,1-2.446-2.41v-0.58a2.385,2.385,0,0,1,2.523-2.39,2.6,2.6,0,0,1,2.563,2.69A2.671,2.671,0,0,1,243.962,3314.73Z" transform="translate(-237 -3305)"/>
</svg>
